# xmcd
#
# Track frame offsets:
#	150
#	14736
#	33648
#	46919
#	57359
#	72243
#	89528
#	106249
#	121558
#	132910
#	146269
#	158703
#	164962
#
# Disc length: 2417 seconds
# Revision: 0
# Processed by: cddbd v1.5.2PL0 Copyright (c) Steve Scherf et al.
# Submitted via: dBpowerAMP V12.0
#
DISCID=b4096f0d
DTITLE=Giles Robson - Crooked Heart Of Mine
DYEAR=2011
DGENRE=Blues
TTITLE0=The Mighty Incinerator
TTITLE1=Twenty Gallons Of Muddy Water
TTITLE2=Keep on Diggin'
TTITLE3=Some Kinda King
TTITLE4=Devil Led Evil
TTITLE5=Stick To The Promise
TTITLE6=Crooked Heart Of Mine
TTITLE7=Swindler For You
TTITLE8=Solidor
TTITLE9=Cooling Board
TTITLE10=Magic Tricks
TTITLE11=Hometown
TTITLE12=Ain't Dead Yet
EXTD=
EXTT0=
EXTT1=
EXTT2=
EXTT3=
EXTT4=
EXTT5=
EXTT6=
EXTT7=
EXTT8=
EXTT9=
EXTT10=
EXTT11=
EXTT12=
PLAYORDER=
